<svg width="153" height="148" viewBox="0 0 153 148" fill="none" xmlns="http://www.w3.org/2000/svg">
<path d="M76.5 148C56.3684 148 36.2368 148 16.1053 148C6.54276 148 0 141.442 0 132.361C0 103.606 0 74.8508 0 46.6001C0 38.5285 6.54276 31.9703 15.0987 31.9703C18.6217 31.9703 22.648 31.9703 26.1711 31.9703C29.1908 31.9703 31.7072 33.9882 31.7072 37.015C31.7072 40.0419 29.1908 42.0598 26.1711 42.0598C22.648 42.0598 19.6283 42.0598 16.1053 42.0598C12.5822 41.5553 10.5691 43.5732 10.5691 47.6091C10.5691 75.3553 10.5691 103.606 10.5691 131.857C10.5691 136.397 12.5822 137.91 17.1118 137.91C56.8717 137.91 96.1283 137.91 135.888 137.91C140.921 137.91 142.934 135.893 142.934 130.848C142.934 103.102 142.934 75.8598 142.934 48.1135C142.934 42.5643 140.921 41.0509 135.888 41.0509C133.372 41.0509 131.359 41.0509 128.842 41.0509C125.822 41.0509 123.809 39.0329 123.809 36.0061C123.809 33.4837 125.822 30.9613 128.842 30.9613C132.365 30.9613 135.888 30.9613 139.411 30.9613C146.457 31.4658 153 38.024 153 45.0867C153 74.3464 153 104.11 153 133.37C153 140.937 145.954 147.496 137.901 147.496C117.266 148 97.1349 148 76.5 148ZM111.73 39.5374C112.234 36.0061 112.234 32.4747 111.227 28.9434C108.711 15.827 100.658 6.74641 88.0757 2.20612C74.4868 -2.33418 61.9046 0.188211 51.8388 9.2688C32.7138 27.43 38.7533 59.7165 65.4276 68.7971C68.9507 69.8061 71.9704 68.7971 72.977 65.7702C73.9836 62.7434 72.4737 60.221 68.9507 59.212C59.3882 55.6807 52.8454 48.618 51.8388 38.5285C50.3289 29.9524 52.8454 21.8807 60.3947 15.827C65.9309 11.7912 73.4803 9.77328 81.0296 10.7822C92.6053 12.2957 102.671 23.8986 102.168 36.0061C102.168 39.5374 99.6513 42.0598 96.6316 42.0598C94.1151 42.0598 92.102 39.5374 92.102 36.0061C92.102 31.9703 92.102 27.9345 92.102 23.8986C92.102 19.8628 87.5724 17.8449 84.0493 19.8628C83.0428 20.3673 81.5329 20.8718 80.023 20.8718C72.977 19.3583 66.4342 22.8897 62.9112 28.9434C59.8914 34.9971 61.4013 42.5643 66.9375 47.1046C72.977 52.1494 79.5197 52.1494 86.0625 47.6091C96.1283 57.1941 110.22 50.1314 111.73 39.5374ZM77.0033 41.0509C74.4868 41.0509 71.9704 39.0329 71.9704 36.0061C71.9704 33.4837 74.4868 30.9613 77.0033 30.9613C79.5197 30.9613 82.0362 33.4837 82.0362 36.0061C81.5329 38.5285 79.5197 40.5464 77.0033 41.0509ZM123.809 60.221C122.803 60.7255 121.796 61.2299 120.789 61.7344C107.704 69.8061 94.6184 77.3732 81.5329 85.9493C78.0099 87.9672 75.4934 88.4717 71.9704 85.9493C58.8849 77.3732 45.2961 69.3016 32.2105 61.2299C29.1908 59.212 26.1711 59.7165 24.1579 62.2389C22.648 64.7613 23.1513 67.7881 26.1711 69.8061C41.773 79.3911 57.8783 89.4807 73.9836 98.5612C75.4934 99.5702 78.5132 99.5702 80.023 98.5612C96.1283 88.9762 112.234 79.3911 127.836 69.3016C129.345 68.2926 129.849 66.7792 130.352 66.2747C129.849 62.2389 127.332 59.7165 123.809 60.221Z" fill="#043C79"/>
</svg>
